<svg xmlns="http://www.w3.org/2000/svg" width="32" height="32" viewBox="0 0 24 24" fill="currentColor">
  <path d="M23.95 4.57c-.89.39-1.84.65-2.84.77a4.93 4.93 0 0 0 2.15-2.72 9.87 9.87 0 0 1-3.13 1.19 4.92 4.92 0 0 0-8.39 4.48 13.95 13.95 0 0 1-10.14-5.14 4.92 4.92 0 0 0 1.52 6.57 4.87 4.87 0 0 1-2.23-.62v.06c0 2.38 1.7 4.37 3.95 4.82-.42.12-.86.18-1.32.18-.32 0-.63-.03-.93-.09a4.93 4.93 0 0 0 4.6 3.42A9.87 9.87 0 0 1 1.17 19.9c-.38 0-.76-.02-1.13-.07a13.95 13.95 0 0 0 7.55 2.21c9.06 0 14.01-7.5 14.01-14v-.64c.96-.7 1.8-1.6 2.46-2.63z"></path>
</svg>
