<svg xmlns="http://www.w3.org/2000/svg" width="32" height="32" viewBox="0 0 24 24" fill="currentColor">
  <path d="M12 .5C5.65.5.5 5.65.5 12c0 5.1 3.29 9.42 7.86 10.95.58.11.79-.25.79-.56v-2c-3.2.7-3.87-1.54-3.87-1.54-.52-1.33-1.27-1.68-1.27-1.68-1.04-.72.08-.71.08-.71 1.15.08 1.75 1.19 1.75 1.19 1.02 1.74 2.68 1.24 3.33.95.1-.74.4-1.25.72-1.54-2.55-.29-5.23-1.28-5.23-5.71 0-1.26.45-2.3 1.19-3.11-.12-.29-.52-1.46.11-3.05 0 0 .97-.31 3.18 1.18a11.1 11.1 0 0 1 5.8 0c2.2-1.49 3.17-1.18 3.17-1.18.64 1.59.24 2.76.12 3.05.74.81 1.18 1.85 1.18 3.11 0 4.44-2.68 5.42-5.24 5.71.41.36.77 1.07.77 2.16v3.2c0 .31.2.67.8.56A10.97 10.97 0 0 0 23.5 12C23.5 5.65 18.35.5 12 .5Z"></path>
</svg>
